<?xml version="1.0" encoding="UTF-8" standalone="no"?>
<!-- Created with Inkscape (http://www.inkscape.org/) -->

<svg
   xmlns:dc="http://purl.org/dc/elements/1.1/"
   xmlns:cc="http://creativecommons.org/ns#"
   xmlns:rdf="http://www.w3.org/1999/02/22-rdf-syntax-ns#"
   xmlns:svg="http://www.w3.org/2000/svg"
   xmlns="http://www.w3.org/2000/svg"
   xmlns:sodipodi="http://sodipodi.sourceforge.net/DTD/sodipodi-0.dtd"
   xmlns:inkscape="http://www.inkscape.org/namespaces/inkscape"
   width="16"
   height="16"
   id="svg2"
   version="1.1"
   inkscape:version="0.48.4 r9939"
   sodipodi:docname="pdf.svg"
   inkscape:export-filename="D:\Downloads\pdf-256.png"
   inkscape:export-xdpi="1440"
   inkscape:export-ydpi="1440">
  <defs
     id="defs4" />
  <sodipodi:namedview
     id="base"
     pagecolor="#ffffff"
     bordercolor="#666666"
     borderopacity="1.0"
     inkscape:pageopacity="0.0"
     inkscape:pageshadow="2"
     inkscape:zoom="45.254834"
     inkscape:cx="10.454543"
     inkscape:cy="9.7444342"
     inkscape:document-units="px"
     inkscape:current-layer="layer1"
     showgrid="true"
     inkscape:window-width="1819"
     inkscape:window-height="1495"
     inkscape:window-x="698"
     inkscape:window-y="14"
     inkscape:window-maximized="0"
     fit-margin-top="0"
     fit-margin-left="0"
     fit-margin-right="0"
     fit-margin-bottom="0"
     inkscape:snap-global="false">
    <inkscape:grid
       type="xygrid"
       id="grid3802"
       empspacing="5"
       visible="true"
       enabled="true"
       snapvisiblegridlinesonly="true" />
  </sodipodi:namedview>
  <metadata
     id="metadata7">
    <rdf:RDF>
      <cc:Work
         rdf:about="">
        <dc:format>image/svg+xml</dc:format>
        <dc:type
           rdf:resource="http://purl.org/dc/dcmitype/StillImage" />
        <dc:title></dc:title>
      </cc:Work>
    </rdf:RDF>
  </metadata>
  <g
     inkscape:label="Layer 1"
     inkscape:groupmode="layer"
     id="layer1"
     transform="translate(-22.728461,-39.784576)">
    <path
       style="fill:#ececec;stroke:none"
       d="m 25.728461,40.784576 7.491072,0 4.508928,4.598214 0,9.401786 -12,0 z"
       id="path2996"
       inkscape:connector-curvature="0"
       sodipodi:nodetypes="cccccc" />
    <path
       style="fill:#2c5aa0;stroke:none"
       d="M 4 2 L 4 14 L 14 14 L 14 6 L 10 2 L 4 2 z M 6 4 L 10 4 L 10 6 L 12 6 L 12 12 L 6 12 L 6 4 z M 7 5 L 7 6 L 9 6 L 9 5 L 7 5 z M 7 7 L 7 8 L 11 8 L 11 7 L 7 7 z M 7 9 L 7 10 L 11 10 L 11 9 L 7 9 z "
       transform="translate(22.728461,39.784576)"
       id="path3000" />
    <g
       id="g3855">
      <g
         id="text3844"
         style="font-size:6.19277954000000010px;font-style:normal;font-variant:normal;font-weight:900;font-stretch:normal;line-height:125%;letter-spacing:0px;word-spacing:0px;fill:none;fill-opacity:1;stroke:#ececec;font-family:Kozuka Gothic Pro H;-inkscape-font-specification:Kozuka Gothic Pro H Heavy;stroke-opacity:1;stroke-width:1.79800000000000000;stroke-miterlimit:4;stroke-dasharray:none">
        <path
           id="path3849"
           style="text-align:start;text-anchor:start;fill:none;font-family:Kozuka Gothic Pro H;-inkscape-font-specification:Kozuka Gothic Pro H Heavy;stroke:#ececec;stroke-opacity:1;stroke-width:1.79800000000000000;stroke-miterlimit:4;stroke-dasharray:none"
           d="m 24.060712,54.532036 1.083723,0 0,-1.709185 c 0.07534,0.0072 0.166169,0.01136 0.272479,0.01239 0.258524,0.0044 0.527944,-0.0388 0.808262,-0.129588 0.280312,-0.09079 0.518998,-0.255542 0.716059,-0.494269 0.197054,-0.238722 0.29996,-0.577791 0.308718,-1.017208 -0.0012,-0.225514 -0.04374,-0.434002 -0.127725,-0.625463 -0.08399,-0.191454 -0.202427,-0.350399 -0.355306,-0.476838 -0.160497,-0.134945 -0.358147,-0.231963 -0.592951,-0.291057 -0.234809,-0.05908 -0.509867,-0.08798 -0.825177,-0.0867 -0.272738,6.5e-4 -0.516834,0.0102 -0.732287,0.02864 -0.215455,0.01845 -0.40072,0.04193 -0.555795,0.07044 z m 1.083723,-3.932365 c 0.03148,-0.0097 0.07534,-0.01819 0.131595,-0.02554 0.05625,-0.0073 0.121788,-0.01122 0.196618,-0.01161 0.218807,9.07e-4 0.389622,0.05948 0.512446,0.175718 0.122819,0.116246 0.185262,0.284739 0.187329,0.505479 -7.77e-4,0.22036 -0.06735,0.397368 -0.199715,0.531024 -0.132371,0.133662 -0.325892,0.202298 -0.580565,0.205908 -0.05483,-1.27e-4 -0.101536,-0.0014 -0.14011,-0.0039 -0.03858,-0.0024 -0.07444,-0.0053 -0.107598,-0.0085 z" />
        <path
           id="path3851"
           style="text-align:start;text-anchor:start;fill:none;font-family:Kozuka Gothic Pro H;-inkscape-font-specification:Kozuka Gothic Pro H Heavy;stroke:#ececec;stroke-opacity:1;stroke-width:1.79800000000000000;stroke-miterlimit:4;stroke-dasharray:none"
           d="m 27.870723,54.507265 c 0.114823,0.01639 0.259835,0.03161 0.435037,0.04567 0.175201,0.01406 0.379044,0.02154 0.61153,0.02245 0.415812,3.87e-4 0.784019,-0.04374 1.104622,-0.132369 0.320599,-0.08863 0.588175,-0.224098 0.802729,-0.406396 0.204614,-0.167977 0.379041,-0.414136 0.523283,-0.73848 0.144234,-0.324341 0.219579,-0.7408 0.226034,-1.249377 -0.0014,-0.438775 -0.06516,-0.812143 -0.1912,-1.120104 -0.126051,-0.307954 -0.305897,-0.55592 -0.539539,-0.743898 -0.19804,-0.157781 -0.435169,-0.2757 -0.711386,-0.353758 -0.276223,-0.07805 -0.610886,-0.117012 -1.003992,-0.116888 -0.240484,6.5e-4 -0.468582,0.0102 -0.684293,0.02864 -0.215713,0.01845 -0.406654,0.04193 -0.572825,0.07044 z m 1.083723,-3.913786 c 0.03677,-0.0094 0.08244,-0.0169 0.137013,-0.02245 0.05457,-0.0055 0.120369,-0.0084 0.197393,-0.0085 0.348466,-1.25e-4 0.625331,0.123987 0.830595,0.372336 0.20526,0.248357 0.310278,0.621725 0.315054,1.120105 -0.0063,0.58676 -0.120631,1.01096 -0.342921,1.2726 -0.222294,0.261642 -0.514641,0.388592 -0.877041,0.380851 -0.04451,2.59e-4 -0.09018,-2.57e-4 -0.137013,-0.0015 -0.04683,-0.0013 -0.08786,-0.0049 -0.12308,-0.01084 z" />
        <path
           id="path3853"
           style="text-align:start;text-anchor:start;fill:none;font-family:Kozuka Gothic Pro H;-inkscape-font-specification:Kozuka Gothic Pro H Heavy;stroke:#ececec;stroke-opacity:1;stroke-width:1.79800000000000000;stroke-miterlimit:4;stroke-dasharray:none"
           d="m 33.314936,54.532036 0,-1.907352 1.424321,0 0,-0.891748 -1.424321,0 0,-1.07753 1.523404,0 0,-0.910327 -2.613319,0 0,4.786957 z" />
      </g>
      <text
         sodipodi:linespacing="125%"
         id="text3807"
         y="54.532036"
         x="23.621031"
         style="font-size:6.19277954px;font-style:normal;font-variant:normal;font-weight:900;font-stretch:normal;line-height:125%;letter-spacing:0px;word-spacing:0px;fill:#333333;fill-opacity:1;stroke:none;font-family:Kozuka Gothic Pro H;-inkscape-font-specification:Kozuka Gothic Pro H Heavy"
         xml:space="preserve"><tspan
           style="font-style:normal;font-variant:normal;font-weight:900;font-stretch:normal;text-align:start;text-anchor:start;fill:#333333;fill-opacity:1;stroke:none;font-family:Kozuka Gothic Pro H;-inkscape-font-specification:Kozuka Gothic Pro H Heavy"
           y="54.532036"
           x="23.621031"
           id="tspan3809"
           sodipodi:role="line">PDF</tspan></text>
    </g>
  </g>
</svg>
